<svg width="273" height="85" viewBox="0 0 273 85" fill="none" xmlns="http://www.w3.org/2000/svg">
<g clip-path="url(#clip0_11996_94)">
<path d="M119.36 2.4658C119.36 1.10398 120.318 0 121.502 0H151.498C152.682 0 153.64 1.10398 153.64 2.4658V36.987C153.64 38.3489 152.682 39.4528 151.498 39.4528H121.502C120.318 39.4528 119.36 38.3489 119.36 36.987V2.4658Z" fill="#0278FE"/>
<path d="M153.64 7.39746H119.36V9.86326H153.64V7.39746Z" fill="#2A2C2F"/>
<path d="M133.286 7.39746H131.144V39.4529H133.286V7.39746Z" fill="#2A2C2F"/>
<path d="M127.193 84.7549L128.091 81.3224H133.234L134.132 84.7549H138.698L133.555 66.8218H127.772L122.629 84.7549H127.193ZM129.05 77.6797L130.602 71.7604H130.724L132.277 77.6797H129.05Z" fill="white"/>
<path d="M140.198 84.7549H144.429V78.8355H145.889L148.628 84.7549H153.224L150.058 78.065C151.718 77.1456 152.707 75.4031 152.707 72.9163C152.707 69.0985 150.386 66.8218 146.924 66.8218H140.198V84.7549ZM144.429 75.0529V70.7096H145.92C147.404 70.7096 148.294 71.3751 148.294 72.9163C148.294 74.4486 147.404 75.0529 145.92 75.0529H144.429Z" fill="white"/>
<path d="M154.084 70.7446H158.771V84.7549H162.94V70.7446H167.627V66.8218H154.084V70.7446Z" fill="white"/>
<path d="M183.606 72.7412H187.882C187.555 69.1422 184.717 66.5767 181.034 66.5767C176.835 66.5767 173.426 69.904 173.426 75.8234C173.426 81.4975 176.516 85 181.065 85C185.144 85 188.065 82.128 188.065 77.2244V74.7376H181.156V78.2051H183.987C183.949 79.7638 182.99 80.7619 181.095 80.7619C178.905 80.7619 177.779 78.9057 177.779 75.7533C177.779 72.6448 178.996 70.8148 181.126 70.8148C182.449 70.8148 183.348 71.5152 183.606 72.7412Z" fill="white"/>
<path d="M193.604 84.7549L194.502 81.3224H199.646L200.544 84.7549H205.108L199.965 66.8218H194.182L189.039 84.7549H193.604ZM195.46 77.6797L197.013 71.7604H197.135L198.687 77.6797H195.46Z" fill="white"/>
<path d="M206.609 84.7549H217.139V80.8321H210.839V66.8218H206.609V84.7549Z" fill="white"/>
<path d="M218.849 84.7549H229.379V80.8321H223.08V66.8218H218.849V84.7549Z" fill="white"/>
<path d="M231.09 84.7549H242.289V80.8321H235.319V77.7498H241.741V73.8269H235.319V70.7446H242.319V66.8218H231.09V84.7549Z" fill="white"/>
<path d="M244.417 84.7549H248.648V78.8355H250.108L252.847 84.7549H257.443L254.277 78.065C255.937 77.1456 256.925 75.4031 256.925 72.9163C256.925 69.0985 254.605 66.8218 251.143 66.8218H244.417V84.7549ZM248.648 75.0529V70.7096H250.139C251.623 70.7096 252.513 71.3751 252.513 72.9163C252.513 74.4486 251.623 75.0529 250.139 75.0529H248.648Z" fill="white"/>
<path d="M257.357 66.8218L263.079 79.1158V84.7549H267.278V79.1158L273 66.8218H268.283L265.24 74.1071H265.118L262.075 66.8218H257.357Z" fill="white"/>
<path d="M116.828 66.8218V84.7548H113.298L107.668 75.333H107.577V84.7548H103.346V66.8218H106.938L112.476 76.2086H112.598V66.8218H116.828Z" fill="white"/>
<path d="M90.0193 84.7548V66.8218H101.249V70.7446H94.2496V73.8269H100.671V77.7497H94.2496V80.832H101.219V84.7548H90.0193Z" fill="white"/>
<path d="M74.8844 70.7446V66.8218H88.4274V70.7446H83.7406V84.7548H79.5712V70.7446H74.8844Z" fill="white"/>
<path d="M61.9821 84.7548V66.8218H73.2121V70.7446H66.2124V73.8269H72.6339V77.7497H66.2124V80.832H73.1817V84.7548H61.9821Z" fill="white"/>
<path d="M49.7415 84.7548V66.8218H53.9718V80.832H60.2715V84.7548H49.7415Z" fill="white"/>
<path d="M35.681 84.7548V66.8218H42.4069C43.5634 66.8218 44.5753 67.0845 45.4427 67.6099C46.31 68.1352 46.9846 68.8737 47.4665 69.8252C47.9484 70.7767 48.1893 71.8888 48.1893 73.1614C48.1893 74.4457 47.9408 75.5577 47.4437 76.4976C46.9517 77.4374 46.2593 78.1613 45.3666 78.6691C44.4789 79.177 43.4416 79.431 42.2547 79.431H38.2375V75.6482H41.4026C41.8997 75.6482 42.3232 75.549 42.6732 75.3505C43.0282 75.1462 43.2996 74.8572 43.4873 74.4836C43.68 74.11 43.7764 73.6693 43.7764 73.1614C43.7764 72.6477 43.68 72.2099 43.4873 71.8479C43.2996 71.4802 43.0282 71.2 42.6732 71.0073C42.3232 70.8088 41.8997 70.7096 41.4026 70.7096H39.9113V84.7548H35.681Z" fill="white"/>
<path d="M33.6767 66.8218V84.7548H29.4464V66.8218H33.6767Z" fill="white"/>
<path d="M15.1349 84.7548V66.8218H21.8607C23.0172 66.8218 24.0292 67.064 24.8965 67.5486C25.7639 68.0331 26.4385 68.7307 26.9204 69.6413C27.4022 70.552 27.6432 71.6436 27.6432 72.9162C27.6432 74.2005 27.3946 75.2834 26.8975 76.1648C26.4055 77.0463 25.7132 77.7118 24.8204 78.1613C23.9328 78.6108 22.8955 78.8355 21.7086 78.8355H17.6913V75.0528H20.8564C21.3535 75.0528 21.7771 74.9827 22.127 74.8426C22.4821 74.6967 22.7535 74.4661 22.9411 74.1509C23.1339 73.8356 23.2303 73.4241 23.2303 72.9162C23.2303 72.4025 23.1339 71.9851 22.9411 71.6641C22.7535 71.3371 22.4821 71.0978 22.127 70.946C21.7771 70.7884 21.3535 70.7096 20.8564 70.7096H19.3652V84.7548H15.1349ZM24.265 76.5238L28.1605 84.7548H23.565L19.7608 76.5238H24.265Z" fill="white"/>
<path d="M0 70.7446V66.8218H13.543V70.7446H8.85622V84.7548H4.6868V70.7446H0Z" fill="white"/>
</g>
<defs>
<clipPath id="clip0_11996_94">
<rect width="273" height="85" fill="white"/>
</clipPath>
</defs>
</svg>
